<svg preserveAspectRatio="none" width="100%" height="100%" overflow="visible" style="display: block;" viewBox="0 0 872.235 329.955" fill="none" xmlns="http://www.w3.org/2000/svg">
<g id="Perspective Grid">
<path id="Vector" d="M54.8266 0.500183V329.455" stroke="#4E2FFF" stroke-opacity="0.13"/>
<path id="Vector_2" d="M109.652 0.500183V329.455" stroke="#4E2FFF" stroke-opacity="0.13"/>
<path id="Vector_3" d="M164.475 0.500183V329.455" stroke="#4E2FFF" stroke-opacity="0.13"/>
<path id="Vector_4" d="M219.301 0.500183V329.455" stroke="#4E2FFF" stroke-opacity="0.13"/>
<path id="Vector_5" d="M274.127 0.500183V329.455" stroke="#4E2FFF" stroke-opacity="0.13"/>
<path id="Vector_6" d="M328.955 0.500183V329.455" stroke="#4E2FFF" stroke-opacity="0.13"/>
<path id="Vector_7" d="M383.78 0.500183V329.455" stroke="#4E2FFF" stroke-opacity="0.13"/>
<path id="Vector_8" d="M438.607 0.500183V329.455" stroke="#4E2FFF" stroke-opacity="0.13"/>
<path id="Vector_9" d="M493.432 0.500183V329.455" stroke="#4E2FFF" stroke-opacity="0.13"/>
<path id="Vector_10" d="M548.256 0.500183V329.455" stroke="#4E2FFF" stroke-opacity="0.13"/>
<path id="Vector_11" d="M603.083 0.500183L603.083 329.454" stroke="#4E2FFF" stroke-opacity="0.13"/>
<path id="Vector_12" d="M762.084 0.500183L762.084 329.454" stroke="#4E2FFF" stroke-opacity="0.13"/>
<path id="Vector_13" d="M657.908 0.500183L657.908 329.454" stroke="#4E2FFF" stroke-opacity="0.13"/>
<path id="Vector_14" d="M816.909 0.500183L816.909 329.454" stroke="#4E2FFF" stroke-opacity="0.13"/>
<path id="Vector_15" d="M712.734 0.500183V329.455" stroke="#4E2FFF" stroke-opacity="0.13"/>
<path id="Vector_16" d="M871.735 0.500183V329.455" stroke="#4E2FFF" stroke-opacity="0.13"/>
<path id="Vector_17" d="M3.05176e-05 329.455H871.735" stroke="#4E2FFF" stroke-opacity="0.13"/>
<path id="Vector_18" d="M3.05176e-05 274.628H871.735" stroke="#4E2FFF" stroke-opacity="0.13"/>
<path id="Vector_19" d="M3.05176e-05 219.804H871.735" stroke="#4E2FFF" stroke-opacity="0.13"/>
<path id="Vector_20" d="M3.05176e-05 164.977H871.735" stroke="#4E2FFF" stroke-opacity="0.13"/>
<path id="Vector_21" d="M3.05176e-05 110.151H871.735" stroke="#4E2FFF" stroke-opacity="0.13"/>
<path id="Vector_22" d="M3.05176e-05 55.3254H871.735" stroke="#4E2FFF" stroke-opacity="0.13"/>
<path id="Vector_23" d="M0 0.5H871.735" stroke="#4E2FFF" stroke-opacity="0.13"/>
</g>
</svg>
