<svg preserveAspectRatio="none" width="100%" height="100%" overflow="visible" style="display: block;" viewBox="0 0 713.734 329.955" fill="none" xmlns="http://www.w3.org/2000/svg">
<g id="Perspective Grid">
<path id="Vector" d="M0.5 0.5L0.5 329.455" stroke="#4E2FFF" stroke-opacity="0.13"/>
<path id="Vector_2" d="M55.3266 0.500183V329.455" stroke="#4E2FFF" stroke-opacity="0.13"/>
<path id="Vector_3" d="M110.152 0.500183V329.455" stroke="#4E2FFF" stroke-opacity="0.13"/>
<path id="Vector_4" d="M164.975 0.500183V329.455" stroke="#4E2FFF" stroke-opacity="0.13"/>
<path id="Vector_5" d="M219.801 0.500183V329.455" stroke="#4E2FFF" stroke-opacity="0.13"/>
<path id="Vector_6" d="M274.627 0.500183V329.455" stroke="#4E2FFF" stroke-opacity="0.13"/>
<path id="Vector_7" d="M329.455 0.500183V329.455" stroke="#4E2FFF" stroke-opacity="0.13"/>
<path id="Vector_8" d="M384.28 0.500183V329.455" stroke="#4E2FFF" stroke-opacity="0.13"/>
<path id="Vector_9" d="M439.107 0.500183V329.455" stroke="#4E2FFF" stroke-opacity="0.13"/>
<path id="Vector_10" d="M493.932 0.500183V329.455" stroke="#4E2FFF" stroke-opacity="0.13"/>
<path id="Vector_11" d="M548.756 0.500183V329.455" stroke="#4E2FFF" stroke-opacity="0.13"/>
<path id="Vector_12" d="M603.583 0.500183L603.583 329.454" stroke="#4E2FFF" stroke-opacity="0.13"/>
<path id="Vector_13" d="M658.408 0.500183L658.408 329.454" stroke="#4E2FFF" stroke-opacity="0.13"/>
<path id="Vector_14" d="M713.234 0.500183V329.455" stroke="#4E2FFF" stroke-opacity="0.13"/>
<path id="Vector_15" d="M0.500031 329.455H713.235" stroke="#4E2FFF" stroke-opacity="0.13"/>
<path id="Vector_16" d="M0.500031 274.628H713.235" stroke="#4E2FFF" stroke-opacity="0.13"/>
<path id="Vector_17" d="M0.500031 219.804H713.235" stroke="#4E2FFF" stroke-opacity="0.13"/>
<path id="Vector_18" d="M0.500031 164.977H713.235" stroke="#4E2FFF" stroke-opacity="0.13"/>
<path id="Vector_19" d="M0.500031 110.151H713.235" stroke="#4E2FFF" stroke-opacity="0.13"/>
<path id="Vector_20" d="M0.500031 55.3258H713.235" stroke="#4E2FFF" stroke-opacity="0.13"/>
<path id="Vector_21" d="M0.5 0.5L713.235 0.5" stroke="#4E2FFF" stroke-opacity="0.13"/>
</g>
</svg>
