<svg width="790" height="119" viewBox="0 0 790 119" fill="none" xmlns="http://www.w3.org/2000/svg">
<path d="M0.31805 78.5883H24.499C24.499 93.7014 36.2714 99.5875 49.6345 99.5875C58.3842 99.5875 71.7474 97.0422 71.7474 85.4289C71.7474 73.1793 54.7253 71.1112 38.0213 66.6568C21.1582 62.2025 4.1361 55.68 4.1361 34.3625C4.1361 11.136 26.0899 5.06954e-05 46.6119 5.06954e-05C70.3156 5.06954e-05 92.1103 10.3406 92.1103 36.5897H67.9294C67.1339 22.9084 57.4297 19.4085 45.4983 19.4085C37.544 19.4085 28.3171 22.7493 28.3171 32.2944C28.3171 41.0441 33.726 42.1577 62.2023 49.4756C70.4747 51.5437 95.9284 56.7935 95.9284 82.5654C95.9284 103.406 79.5426 118.996 48.68 118.996C23.5445 118.996 -0.000120176 106.587 0.31805 78.5883ZM101.244 116.292V2.7045H126.22V49.7938L170.605 2.7045H201.786L157.401 47.5666L206.081 116.292H174.742L140.538 65.2251L126.22 79.7019V116.292H101.244ZM235.938 116.292V72.0657L194.099 2.7045H222.257L248.824 47.5666L275.233 2.7045H303.073L260.915 72.7021V116.292H235.938ZM441.794 2.7045L411.249 116.292H386.432L367.183 38.976H366.865L347.933 116.292H322.639L292.572 2.7045H317.548L335.525 80.02H335.843L355.569 2.7045H378.955L398.363 80.9745H398.682L417.295 2.7045H441.794ZM443.756 116.292V2.7045H468.733V116.292H443.756ZM481.129 116.292V2.7045H505.946L553.354 78.9064H553.672V2.7045H577.057V116.292H552.081L504.833 40.2487H504.514V116.292H481.129ZM674.133 116.292L671.588 103.406C662.838 114.701 651.384 118.996 640.407 118.996C605.249 118.996 584.568 92.7469 584.568 59.9753C584.568 26.2491 605.249 5.06954e-05 640.407 5.06954e-05C663.633 5.06954e-05 685.587 14.3177 688.292 40.0896H664.429C661.565 27.5218 652.179 20.9993 640.407 20.9993C617.976 20.9993 609.544 40.0896 609.544 59.9753C609.544 78.9064 617.976 97.9967 640.407 97.9967C656.634 97.9967 666.02 89.247 667.452 73.4975H642.316V54.8845H690.042V116.292H674.133ZM693.508 78.5883H717.689C717.689 93.7014 729.461 99.5875 742.824 99.5875C751.574 99.5875 764.937 97.0422 764.937 85.4289C764.937 73.1793 747.915 71.1112 731.211 66.6568C714.348 62.2025 697.326 55.68 697.326 34.3625C697.326 11.136 719.28 5.06954e-05 739.802 5.06954e-05C763.506 5.06954e-05 785.3 10.3406 785.3 36.5897H761.119C760.324 22.9084 750.62 19.4085 738.688 19.4085C730.734 19.4085 721.507 22.7493 721.507 32.2944C721.507 41.0441 726.916 42.1577 755.392 49.4756C763.665 51.5437 789.118 56.7935 789.118 82.5654C789.118 103.406 772.733 118.996 741.87 118.996C716.734 118.996 693.19 106.587 693.508 78.5883Z" fill="url(#paint0_linear_466_935)"/>
<defs>
<linearGradient id="paint0_linear_466_935" x1="410.362" y1="2.2915" x2="410.362" y2="131.497" gradientUnits="userSpaceOnUse">
<stop stop-color="#28A6FF"/>
<stop offset="0.495192" stop-color="#284FFF"/>
<stop offset="1" stop-color="#718AFF"/>
</linearGradient>
</defs>
</svg>
