<svg width="61" height="29" viewBox="0 0 61 29" fill="none" xmlns="http://www.w3.org/2000/svg">
<path d="M3.03809 18.9209C3.63505 18.9209 4.14292 19.018 4.56152 19.2109C4.98378 19.4039 5.26278 19.6475 5.39746 19.9424C5.53572 20.2336 5.60446 20.7304 5.60449 21.4326V21.7822H3.46973V21.127C3.46971 20.8214 3.44228 20.6267 3.3877 20.543C3.33309 20.4593 3.24164 20.417 3.11426 20.417C2.97616 20.4171 2.87057 20.4742 2.79785 20.5869C2.72882 20.6997 2.69437 20.8706 2.69434 21.0996C2.69434 21.3942 2.7345 21.6164 2.81445 21.7656C2.89088 21.9148 3.10728 22.0956 3.46387 22.3066C4.48675 22.9145 5.13173 23.4132 5.39746 23.8027C5.66312 24.1922 5.7959 24.8203 5.7959 25.6865C5.7959 26.3163 5.72151 26.7806 5.57227 27.0791C5.42666 27.3776 5.14198 27.6282 4.71973 27.832C4.29757 28.0322 3.8065 28.1328 3.24609 28.1328C2.63097 28.1328 2.10476 28.0161 1.66797 27.7832C1.23496 27.5503 0.951154 27.2537 0.816406 26.8936C0.681751 26.5333 0.614288 26.0217 0.614258 25.3594V24.7803H2.74902V25.8555C2.74902 26.1867 2.7777 26.4005 2.83594 26.4951C2.89781 26.5896 3.00552 26.6367 3.1582 26.6367C3.31109 26.6367 3.42427 26.5762 3.49707 26.4561C3.57337 26.3359 3.61133 26.1573 3.61133 25.9209C3.61129 25.4006 3.54036 25.0605 3.39844 24.9004C3.25282 24.7402 2.89458 24.4725 2.32324 24.0977C1.75203 23.7193 1.37325 23.4445 1.1875 23.2734C1.00192 23.1024 0.847376 22.8655 0.723633 22.5635C0.603508 22.2613 0.542969 21.8749 0.542969 21.4053C0.543007 20.7286 0.628821 20.2339 0.799805 19.9209C0.974532 19.6078 1.25477 19.3632 1.64062 19.1885C2.02638 19.0102 2.49228 18.9209 3.03809 18.9209ZM50.1123 18.9209C50.7857 18.9209 51.345 19.0593 51.7891 19.3359C52.233 19.6125 52.5225 19.9421 52.6572 20.3242C52.7919 20.7028 52.8584 21.2551 52.8584 21.9795V22.3613H50.5605V21.5586C50.5605 21.0527 50.5378 20.7358 50.4941 20.6084C50.4504 20.4813 50.3471 20.4171 50.1836 20.417C50.0416 20.417 49.9445 20.4719 49.8936 20.5811C49.8426 20.6902 49.8174 20.9707 49.8174 21.4219V25.665C49.8174 26.0616 49.8426 26.3238 49.8936 26.4512C49.9445 26.5749 50.0473 26.6367 50.2002 26.6367C50.3673 26.6366 50.4799 26.5656 50.5381 26.4238C50.6 26.2819 50.6309 26.0051 50.6309 25.5938V24.5449H50.167V23.2021H52.8584V27.9473H51.4121L51.1992 27.3135C51.0427 27.5865 50.8438 27.7923 50.6035 27.9307C50.3669 28.0653 50.0866 28.1328 49.7627 28.1328C49.3771 28.1328 49.0151 28.04 48.6768 27.8545C48.3419 27.6652 48.0868 27.4319 47.9121 27.1553C47.7374 26.8786 47.6277 26.5892 47.584 26.2871C47.5403 25.9814 47.5186 25.5247 47.5186 24.917V22.29C47.5186 21.4457 47.5643 20.8324 47.6553 20.4502C47.7463 20.068 48.007 19.719 48.4365 19.4023C48.8697 19.0821 49.428 18.9209 50.1123 18.9209ZM57.4004 18.9209C57.9973 18.9209 58.5052 19.018 58.9238 19.2109C59.3461 19.4039 59.6251 19.6475 59.7598 19.9424C59.898 20.2335 59.9668 20.7304 59.9668 21.4326V21.7822H57.832V21.127C57.832 20.8214 57.8046 20.6267 57.75 20.543C57.6954 20.4593 57.6039 20.417 57.4766 20.417C57.3385 20.4171 57.2329 20.4742 57.1602 20.5869C57.0911 20.6997 57.0567 20.8706 57.0566 21.0996C57.0566 21.3945 57.0967 21.6174 57.1768 21.7666C57.2534 21.9157 57.4699 22.0958 57.8262 22.3066C58.8491 22.9145 59.494 23.4132 59.7598 23.8027C60.0254 24.1922 60.1582 24.8203 60.1582 25.6865C60.1582 26.3162 60.0838 26.7806 59.9346 27.0791C59.789 27.3776 59.5043 27.6282 59.082 27.832C58.6599 28.0322 58.1688 28.1328 57.6084 28.1328C56.9933 28.1328 56.4671 28.0161 56.0303 27.7832C55.5972 27.5503 55.3135 27.2538 55.1787 26.8936C55.0441 26.5333 54.9766 26.0217 54.9766 25.3594V24.7803H57.1113V25.8555C57.1113 26.1867 57.14 26.4005 57.1982 26.4951C57.2601 26.5896 57.3678 26.6367 57.5205 26.6367C57.6734 26.6367 57.7866 26.5762 57.8594 26.4561C57.9357 26.3359 57.9736 26.1573 57.9736 25.9209C57.9736 25.4006 57.9027 25.0605 57.7607 24.9004C57.6151 24.7402 57.2569 24.4725 56.6855 24.0977C56.1143 23.7193 55.7355 23.4445 55.5498 23.2734C55.3642 23.1024 55.2097 22.8655 55.0859 22.5635C54.9659 22.2614 54.9053 21.8756 54.9053 21.4062C54.9053 20.7293 54.9911 20.234 55.1621 19.9209C55.3368 19.6078 55.6171 19.3632 56.0029 19.1885C56.3887 19.0102 56.8546 18.9209 57.4004 18.9209ZM10.1621 22.541L11.1836 19.1074H13.3398L12.0244 23.0986L13.4658 27.9473H11.0908L10.1621 24.1572V27.9473H7.86328V19.1074H10.1621V22.541ZM16.8008 19.1074C17.1319 20.8288 17.3174 21.988 17.3574 22.585C17.4848 21.6423 17.6977 20.4831 17.9961 19.1074H20.1094L18.4336 24.7471V27.9473H16.3037V24.7471L14.6875 19.1074H16.8008ZM27.1777 22.1924L27.418 25.168C27.5017 23.6283 27.7133 21.608 28.0518 19.1074H30.4434C30.4762 19.3665 30.5597 20.3382 30.6943 22.0225L30.9453 25.3809C31.0727 23.2442 31.2865 21.1531 31.585 19.1074H33.8174L32.7969 27.9473H29.9248C29.6627 26.5895 29.4317 25.0455 29.2314 23.3164C29.1404 24.0554 28.9267 25.5994 28.5918 27.9473H25.7363L24.71 19.1074H26.9434L27.1777 22.1924ZM37.917 27.9473H35.6182V19.1074H37.917V27.9473ZM43.3926 23.0879V19.1074H45.3145V27.9473H43.2998L42.1035 23.9287V27.9473H40.1816V19.1074H42.1035L43.3926 23.0879ZM4.43652 3.71094C4.61567 3.66193 5.55858 3.71461 7.89551 4.31738C10.8171 5.07097 21.2599 7.6043 24.5938 8.7373C27.9269 9.87026 28.0129 11.466 28.3076 12.9199C28.5434 14.0831 28.9955 16.732 29.1924 17.9111C29.1643 17.9423 29.0799 18.0406 29.041 18.0859C28.5674 16.7781 27.5465 13.9437 27.252 13.0684C26.6061 11.6564 25.3315 10.9261 24.5938 10.6758C24.0593 10.4945 10.9668 6.03788 4.43652 3.71094ZM55.6357 3.71094C49.1057 6.03776 36.0152 10.4941 35.4795 10.6758C34.7417 10.9259 33.4662 11.656 32.8203 13.0684C32.5258 13.9437 31.5049 16.7781 31.0312 18.0859C30.9923 18.0405 30.9078 17.9422 30.8799 17.9111C31.0768 16.732 31.5298 14.0831 31.7656 12.9199C32.0603 11.466 32.1459 9.87024 35.4795 8.7373C38.8134 7.60427 49.2563 5.07092 52.1777 4.31738C54.5135 3.71492 55.4561 3.66202 55.6357 3.71094ZM13.6338 17.3945C17.724 17.3945 21.8151 17.4275 25.9053 17.4932C26.3596 17.5005 26.8142 17.5085 27.2686 17.5166C26.8142 17.5247 26.3596 17.5318 25.9053 17.5391C21.8151 17.6047 17.724 17.6377 13.6338 17.6377C9.54368 17.6377 5.45339 17.6047 1.36328 17.5391C0.908858 17.5318 0.454424 17.5247 0 17.5166C0.454427 17.5085 0.908854 17.5005 1.36328 17.4932C5.45339 17.4275 9.54368 17.3945 13.6338 17.3945ZM47.1123 17.3945C51.2024 17.3945 55.2927 17.4275 59.3828 17.4932C59.8372 17.5005 60.2918 17.5085 60.7461 17.5166C60.2918 17.5247 59.8371 17.5318 59.3828 17.5391C55.2927 17.6047 51.2024 17.6377 47.1123 17.6377C43.0222 17.6377 38.9319 17.6047 34.8418 17.5391C34.3874 17.5318 33.9329 17.5247 33.4785 17.5166C33.9329 17.5085 34.3874 17.5005 34.8418 17.4932C38.9319 17.4275 43.0222 17.3945 47.1123 17.3945ZM59.4326 0.236328C51.4473 2.9271 34.7432 8.22374 33.9697 8.54199C33.4199 8.76842 31.4965 9.93573 30.9629 12.0693C30.4298 14.2019 30.1866 16.1915 30.1348 16.334C30.0948 16.4425 30.0099 16.537 29.9688 16.5742V16.5781L29.9668 16.5762L29.9648 16.5781V16.5742C29.9294 16.5383 29.9286 16.4648 29.8887 16.3564C29.8368 16.2134 29.6434 14.2015 29.1104 12.0693C28.5769 9.93607 26.6538 8.76875 26.1035 8.54199C25.3324 8.22447 8.62552 2.92729 0.639648 0.236328L0.702148 0C8.28112 1.74467 24.0335 5.43107 27.5488 6.47754C27.6773 6.48177 27.7826 6.4607 27.8242 6.39453C28.6591 5.08089 29.3035 4.06757 29.8867 3.85254C30.4698 3.63772 31.1698 3.69948 31.5996 3.93262C31.9434 4.11925 33.0452 4.31784 33.5527 4.39355C33.3378 4.65141 32.5333 5.2593 32.1465 5.54785L32.3418 6.53223C35.455 5.56723 51.6524 1.77684 59.3711 0L59.4326 0.236328ZM8.36035 6.9209C10.4532 6.95036 21.2143 10.2858 21.542 10.4131C21.8686 10.5401 24.5983 11.0473 25.5957 11.8633C25.1031 13.3965 24.4533 13.5171 23.96 13.3115C23.4662 13.1058 16.6035 10.414 15.8916 10.166C15.1824 9.91906 8.95559 7.22562 8.74414 7.14551C8.53682 7.06719 8.28419 7.05046 8.36035 6.9209ZM51.7139 6.9209C51.7894 7.05017 51.5363 7.06725 51.3291 7.14551C51.1145 7.22701 44.8928 9.91863 44.1826 10.166C43.4733 10.413 36.6068 13.1059 36.1133 13.3115C35.6199 13.517 34.9711 13.3964 34.4785 11.8633C35.4761 11.0475 38.2042 10.5401 38.5312 10.4131C38.8577 10.2861 49.6219 6.94995 51.7139 6.9209Z" fill="#1A1A1A"/>
</svg>
